<?xml version="1.0" encoding="UTF-8"?>
<svg width="400" height="500" viewBox="0 0 400 500" xmlns="http://www.w3.org/2000/svg">
    <rect width="400" height="500" fill="#667eea"/>
    <rect x="20" y="20" width="360" height="460" fill="white" rx="8"/>
    
    <!-- Header -->
    <rect x="40" y="40" width="320" height="80" fill="#667eea" opacity="0.1" rx="4"/>
    <circle cx="80" cy="80" r="20" fill="#667eea" opacity="0.3"/>
    <rect x="120" y="70" width="150" height="8" fill="#667eea" opacity="0.7" rx="4"/>
    <rect x="120" y="85" width="100" height="6" fill="#667eea" opacity="0.5" rx="3"/>
    
    <!-- Content lines -->
    <rect x="40" y="150" width="320" height="4" fill="#e2e8f0" rx="2"/>
    <rect x="40" y="170" width="280" height="3" fill="#f7fafc" rx="1.5"/>
    <rect x="40" y="185" width="300" height="3" fill="#f7fafc" rx="1.5"/>
    <rect x="40" y="200" width="260" height="3" fill="#f7fafc" rx="1.5"/>
    
    <rect x="40" y="230" width="320" height="4" fill="#e2e8f0" rx="2"/>
    <rect x="40" y="250" width="280" height="3" fill="#f7fafc" rx="1.5"/>
    <rect x="40" y="265" width="300" height="3" fill="#f7fafc" rx="1.5"/>
    <rect x="40" y="280" width="260" height="3" fill="#f7fafc" rx="1.5"/>
    
    <rect x="40" y="310" width="320" height="4" fill="#e2e8f0" rx="2"/>
    <rect x="40" y="330" width="200" height="3" fill="#f7fafc" rx="1.5"/>
    <rect x="40" y="345" width="180" height="3" fill="#f7fafc" rx="1.5"/>
    
    <!-- Sidebar -->
    <rect x="260" y="150" width="100" height="200" fill="#667eea" opacity="0.05" rx="4"/>
    <rect x="270" y="160" width="80" height="3" fill="#667eea" opacity="0.4" rx="1.5"/>
    <rect x="270" y="175" width="60" height="2" fill="#667eea" opacity="0.3" rx="1"/>
    <rect x="270" y="185" width="70" height="2" fill="#667eea" opacity="0.3" rx="1"/>
    
    <!-- Template name -->
    <text x="200" y="480" text-anchor="middle" fill="#667eea" font-family="Arial, sans-serif" font-size="16" font-weight="bold">Modern</text>
</svg>